<?xml version="1.0" encoding="utf-8"?>
<!-- Generator: Adobe Illustrator 22.0.0, SVG Export Plug-In . SVG Version: 6.00 Build 0)  -->
<svg version="1.1" id="Layer_1" xmlns="http://www.w3.org/2000/svg" xmlns:xlink="http://www.w3.org/1999/xlink" x="0px" y="0px"
	 viewBox="0 0 900 159.7" style="enable-background:new 0 0 900 159.7;" xml:space="preserve">
<style type="text/css">
	.st0{fill:#231F20;}
</style>
<g>
	<g>
		<g>
			
				<rect x="443.8" y="21.3" transform="matrix(0.9945 -0.1044 0.1044 0.9945 2.001418e-02 46.4897)" class="st0" width="0.5" height="3.5"/>
		</g>
		<g>
			
				<rect x="437.9" y="22.3" transform="matrix(0.9782 -0.2079 0.2079 0.9782 4.5829 91.5926)" class="st0" width="0.5" height="3.5"/>
		</g>
		<g>
			
				<rect x="432.1" y="23.8" transform="matrix(0.9511 -0.3088 0.3088 0.9511 13.2461 134.7631)" class="st0" width="0.5" height="3.5"/>
		</g>
		<g>
			
				<rect x="426.5" y="25.9" transform="matrix(0.9136 -0.4067 0.4067 0.9136 25.6304 175.9543)" class="st0" width="0.5" height="3.5"/>
		</g>
		<g>
			
				<rect x="416.2" y="31.9" transform="matrix(0.8091 -0.5877 0.5877 0.8091 59.7424 251.1797)" class="st0" width="0.5" height="3.5"/>
		</g>
		<g>
			
				<rect x="411.5" y="35.7" transform="matrix(0.7432 -0.6691 0.6691 0.7432 80.7275 285.1339)" class="st0" width="0.5" height="3.5"/>
		</g>
		<g>
			
				<rect x="407.3" y="39.9" transform="matrix(0.6691 -0.7432 0.7432 0.6691 103.923 316.6693)" class="st0" width="0.5" height="3.5"/>
		</g>
		<g>
			
				<rect x="403.5" y="44.5" transform="matrix(0.5877 -0.8091 0.8091 0.5877 129.0295 345.7761)" class="st0" width="0.5" height="3.5"/>
		</g>
		<g>
			
				<rect x="397.6" y="54.9" transform="matrix(0.4067 -0.9136 0.9136 0.4067 184.3161 397.0406)" class="st0" width="0.5" height="3.5"/>
		</g>
		<g>
			
				<rect x="395.4" y="60.5" transform="matrix(0.309 -0.9511 0.9511 0.309 214.2597 419.3019)" class="st0" width="0.5" height="3.5"/>
		</g>
		<g>
			
				<rect x="393.9" y="66.2" transform="matrix(0.2079 -0.9781 0.9781 0.2079 245.7124 439.3719)" class="st0" width="0.5" height="3.5"/>
		</g>
		<g>
			
				<rect x="392.9" y="72.1" transform="matrix(0.1044 -0.9945 0.9945 0.1044 278.6804 457.2216)" class="st0" width="0.5" height="3.5"/>
		</g>
		<g>
			
				<rect x="392.9" y="84.1" transform="matrix(-0.1044 -0.9945 0.9945 -0.1044 348.9318 485.8346)" class="st0" width="0.5" height="3.5"/>
		</g>
		<g>
			
				<rect x="393.9" y="90" transform="matrix(-0.2079 -0.9781 0.9781 -0.2079 386.3766 496.3173)" class="st0" width="0.5" height="3.5"/>
		</g>
		<g>
			
				<rect x="395.4" y="95.8" transform="matrix(-0.309 -0.9511 0.9511 -0.309 425.25 503.9413)" class="st0" width="0.5" height="3.5"/>
		</g>
		<g>
			
				<rect x="397.6" y="101.3" transform="matrix(-0.4066 -0.9136 0.9136 -0.4066 465.4248 508.4423)" class="st0" width="0.5" height="3.5"/>
		</g>
		<g>
			
				<rect x="403.5" y="111.7" transform="matrix(-0.5877 -0.8091 0.8091 -0.5877 549.3784 506.7607)" class="st0" width="0.5" height="3.5"/>
		</g>
		<g>
			
				<rect x="407.3" y="116.3" transform="matrix(-0.6692 -0.7431 0.7431 -0.6692 592.5874 499.9067)" class="st0" width="0.5" height="3.5"/>
		</g>
		<g>
			
				<rect x="411.5" y="120.6" transform="matrix(-0.7432 -0.6691 0.6691 -0.7432 636.006 488.6836)" class="st0" width="0.5" height="3.5"/>
		</g>
		<g>
			
				<rect x="416.2" y="124.3" transform="matrix(-0.8089 -0.5879 0.5879 -0.8089 679.2071 472.8218)" class="st0" width="0.5" height="3.5"/>
		</g>
		<g>
			
				<rect x="426.5" y="130.3" transform="matrix(-0.9136 -0.4067 0.4067 -0.9136 762.9744 426.1747)" class="st0" width="0.5" height="3.5"/>
		</g>
		<g>
			
				<rect x="432.1" y="132.4" transform="matrix(-0.9511 -0.309 0.309 -0.9511 802.09 395.3473)" class="st0" width="0.5" height="3.5"/>
		</g>
		<g>
			
				<rect x="437.9" y="134" transform="matrix(-0.9782 -0.2079 0.2079 -0.9782 838.4793 359.5052)" class="st0" width="0.5" height="3.5"/>
		</g>
		<g>
			
				<rect x="443.8" y="134.9" transform="matrix(-0.9945 -0.1046 0.1046 -0.9945 871.3254 318.9873)" class="st0" width="0.5" height="3.5"/>
		</g>
		<g>
			
				<rect x="455.7" y="134.9" transform="matrix(-0.9945 0.1047 -0.1047 -0.9945 923.7351 224.7925)" class="st0" width="0.5" height="3.5"/>
		</g>
		<g>
			
				<rect x="461.6" y="134" transform="matrix(-0.9781 0.2079 -0.2079 -0.9781 941.8654 172.4089)" class="st0" width="0.5" height="3.5"/>
		</g>
		<g>
			
				<rect x="467.4" y="132.4" transform="matrix(-0.951 0.3091 -0.3091 -0.951 953.858 117.1919)" class="st0" width="0.5" height="3.5"/>
		</g>
		<g>
			
				<rect x="473" y="130.3" transform="matrix(-0.9136 0.4066 -0.4066 -0.9136 959.2444 60.2056)" class="st0" width="0.5" height="3.5"/>
		</g>
		<g>
			
				<rect x="483.3" y="124.3" transform="matrix(-0.8089 0.5879 -0.5879 -0.8089 948.8384 -56.281)" class="st0" width="0.5" height="3.5"/>
		</g>
		<g>
			
				<rect x="488" y="120.6" transform="matrix(-0.7432 0.6691 -0.6691 -0.7432 932.8535 -113.5016)" class="st0" width="0.5" height="3.5"/>
		</g>
		<g>
			
				<rect x="492.2" y="116.3" transform="matrix(-0.6692 0.7431 -0.7431 -0.6692 909.7031 -168.858)" class="st0" width="0.5" height="3.5"/>
		</g>
		<g>
			
				<rect x="495.9" y="111.7" transform="matrix(-0.5877 0.8091 -0.8091 -0.5877 879.5859 -221.3854)" class="st0" width="0.5" height="3.5"/>
		</g>
		<g>
			
				<rect x="501.9" y="101.3" transform="matrix(-0.4066 0.9136 -0.9136 -0.4066 800.5121 -313.8047)" class="st0" width="0.5" height="3.5"/>
		</g>
		<g>
			
				<rect x="504" y="95.8" transform="matrix(-0.309 0.9511 -0.9511 -0.309 752.8701 -352.0081)" class="st0" width="0.5" height="3.5"/>
		</g>
		<g>
			
				<rect x="505.6" y="90" transform="matrix(-0.2079 0.9781 -0.9781 -0.2079 700.7393 -384.0166)" class="st0" width="0.5" height="3.5"/>
		</g>
		<g>
			
				<rect x="506.5" y="84.1" transform="matrix(-0.1047 0.9945 -0.9945 -0.1047 645.1799 -409.2111)" class="st0" width="0.5" height="3.5"/>
		</g>
		<g>
			
				<rect x="506.5" y="72.1" transform="matrix(0.1046 0.9945 -0.9945 0.1046 527.226 -437.8636)" class="st0" width="0.5" height="3.5"/>
		</g>
		<g>
			
				<rect x="505.6" y="66.2" transform="matrix(0.2079 0.9781 -0.9781 0.2079 467.1717 -440.9619)" class="st0" width="0.5" height="3.5"/>
		</g>
		<g>
			
				<rect x="504" y="60.5" transform="matrix(0.309 0.9511 -0.9511 0.309 407.6203 -436.6474)" class="st0" width="0.5" height="3.5"/>
		</g>
		<g>
			
				<rect x="501.9" y="54.9" transform="matrix(0.4067 0.9136 -0.9136 0.4067 349.6683 -425.1713)" class="st0" width="0.5" height="3.5"/>
		</g>
		<g>
			
				<rect x="495.9" y="44.5" transform="matrix(0.5877 0.8091 -0.8091 0.5877 242.0062 -382.37)" class="st0" width="0.5" height="3.5"/>
		</g>
		<g>
			
				<rect x="492.2" y="39.9" transform="matrix(0.6691 0.7432 -0.7432 0.6691 193.8918 -352.1902)" class="st0" width="0.5" height="3.5"/>
		</g>
		<g>
			
				<rect x="488" y="35.7" transform="matrix(0.7432 0.6691 -0.6691 0.7432 150.4131 -317.0513)" class="st0" width="0.5" height="3.5"/>
		</g>
		<g>
			
				<rect x="483.3" y="31.9" transform="matrix(0.8091 0.5877 -0.5877 0.8091 112.1115 -277.7846)" class="st0" width="0.5" height="3.5"/>
		</g>
		<g>
			
				<rect x="473" y="25.9" transform="matrix(0.9136 0.4066 -0.4066 0.9136 52.1367 -190.021)" class="st0" width="0.5" height="3.5"/>
		</g>
		<g>
			
				<rect x="467.4" y="23.8" transform="matrix(0.9511 0.3089 -0.3089 0.9511 30.7546 -143.1972)" class="st0" width="0.5" height="3.5"/>
		</g>
		<g>
			
				<rect x="461.6" y="22.3" transform="matrix(0.9781 0.2079 -0.2079 0.9781 15.0799 -95.5021)" class="st0" width="0.5" height="3.5"/>
		</g>
		<g>
			
				<rect x="455.7" y="21.3" transform="matrix(0.9945 0.1044 -0.1044 0.9945 4.9013 -47.4953)" class="st0" width="0.5" height="3.5"/>
		</g>
	</g>
	<g>
		<g>
			<g>
				<rect x="449.7" y="20.6" class="st0" width="0.5" height="6.8"/>
			</g>
			<g>
				<path class="st0" d="M450.5,27.7h-1v-7.3h1V27.7z M450,27.2L450,27.2l0.1-6.4H450V27.2z"/>
			</g>
		</g>
		<g>
			<g>
				<rect x="421.8" y="28.1" transform="matrix(0.866 -0.5 0.5 0.866 40.7851 215.2783)" class="st0" width="0.5" height="6.8"/>
			</g>
			<g>
				<path class="st0" d="M423.5,34.9l-0.1-0.2l-3.5-6.1l0.9-0.5l0.1,0.2l3.5,6.1L423.5,34.9z M420.5,28.8l3.2,5.5l0,0L420.5,28.8
					L420.5,28.8z"/>
			</g>
		</g>
		<g>
			<g>
				<rect x="401.4" y="48.5" transform="matrix(0.5 -0.866 0.866 0.5 155.8526 373.8484)" class="st0" width="0.5" height="6.8"/>
			</g>
			<g>
				<path class="st0" d="M404.6,54.2l-6.3-3.6l0.5-0.9l6.3,3.6L404.6,54.2z M398.9,50.4l5.5,3.2l0,0L398.9,50.4L398.9,50.4z"/>
			</g>
		</g>
		<g>
			<g>
				
					<rect x="394" y="76.4" transform="matrix(6.123234e-17 -1 1 6.123234e-17 314.3701 474.0593)" class="st0" width="0.5" height="6.8"/>
			</g>
			<g>
				<path class="st0" d="M397.9,80.3h-7.3v-1h7.3V80.3z M391,79.9h6.4v-0.1L391,79.9L391,79.9z"/>
			</g>
		</g>
		<g>
			<g>
				
					<rect x="401.4" y="104.3" transform="matrix(-0.5 -0.866 0.866 -0.5 509.2297 509.4783)" class="st0" width="0.5" height="6.8"/>
			</g>
			<g>
				<path class="st0" d="M398.8,110l-0.5-0.9l0.2-0.1l6.1-3.5l0.5,0.9l-0.2,0.1L398.8,110z M398.9,109.3L398.9,109.3l5.5-3.1l0,0
					L398.9,109.3z"/>
			</g>
		</g>
		<g>
			<g>
				
					<rect x="421.8" y="124.7" transform="matrix(-0.866 -0.5 0.5 -0.866 723.5851 450.1961)" class="st0" width="0.5" height="6.8"/>
			</g>
			<g>
				<path class="st0" d="M420.7,131.6l-0.9-0.5l0.1-0.2l3.5-6.1l0.9,0.5L420.7,131.6z M420.5,130.9L420.5,130.9l3.2-5.5l0,0
					L420.5,130.9z"/>
			</g>
		</g>
		<g>
			<g>
				
					<rect x="449.7" y="132.2" transform="matrix(-1 -9.750924e-11 9.750924e-11 -1 900.0001 271.2596)" class="st0" width="0.5" height="6.8"/>
			</g>
			<g>
				<path class="st0" d="M450.5,139.3h-1V132h1V139.3z M450,138.8L450,138.8l0.1-6.4H450V138.8z"/>
			</g>
		</g>
		<g>
			<g>
				<rect x="477.6" y="124.7" transform="matrix(-0.866 0.5 -0.5 -0.866 955.8379 0.1959)" class="st0" width="0.5" height="6.8"/>
			</g>
			<g>
				<path class="st0" d="M479.3,131.6l-0.1-0.2l-3.5-6.1l0.9-0.5l0.1,0.2l3.5,6.1L479.3,131.6z M476.3,125.4l3.2,5.5l0,0
					L476.3,125.4L476.3,125.4z"/>
			</g>
		</g>
		<g>
			<g>
				
					<rect x="498.1" y="104.3" transform="matrix(-0.5 0.866 -0.866 -0.5 840.7703 -269.9448)" class="st0" width="0.5" height="6.8"/>
			</g>
			<g>
				<path class="st0" d="M501.2,110l-6.3-3.6l0.5-0.9l6.3,3.6L501.2,110z M495.5,106.2l5.5,3.2l0,0L495.5,106.2L495.5,106.2z"/>
			</g>
		</g>
		<g>
			<g>
				
					<rect x="505.5" y="76.4" transform="matrix(-1.880542e-10 1 -1 -1.880542e-10 585.6297 -425.9409)" class="st0" width="0.5" height="6.8"/>
			</g>
			<g>
				<path class="st0" d="M509.4,80.3h-7.3v-1h7.3V80.3z M502.6,79.9h6.4v-0.1L502.6,79.9L502.6,79.9z"/>
			</g>
		</g>
		<g>
			<g>
				<path class="st0" d="M448.4,33.2c0.3,0.2,0.5,0.4,0.7,0.7c0.2,0.3,0.3,0.7,0.3,1.1s-0.1,0.8-0.3,1.1c-0.2,0.3-0.4,0.6-0.8,0.8
					c-0.3,0.2-0.7,0.3-1.1,0.3c-0.8,0-1.5-0.3-1.9-0.8c-0.4-0.6-0.7-1.4-0.7-2.4c0-0.7,0.1-1.4,0.3-1.9c0.2-0.5,0.5-0.9,0.9-1.2
					c0.4-0.3,0.9-0.4,1.4-0.4c0.4,0,0.8,0.1,1.1,0.2c0.4,0.1,0.7,0.3,1,0.6L449,32c-0.6-0.5-1.2-0.7-1.7-0.7c-0.5,0-1,0.2-1.2,0.7
					c-0.3,0.5-0.4,1.1-0.4,2v0c0.1-0.3,0.4-0.6,0.7-0.8c0.3-0.2,0.7-0.3,1-0.3C447.7,33,448.1,33.1,448.4,33.2z M448.1,36.1
					c0.2-0.2,0.4-0.6,0.4-1c0-0.4-0.1-0.7-0.4-1c-0.2-0.2-0.5-0.4-0.9-0.4s-0.7,0.1-1,0.4s-0.4,0.6-0.4,1c0,0.4,0.1,0.7,0.4,1
					c0.3,0.2,0.6,0.4,1,0.4C447.6,36.5,447.9,36.3,448.1,36.1z"/>
			</g>
			<g>
				<path class="st0" d="M451.1,36.4c-0.4-0.6-0.6-1.4-0.6-2.5c0-1.1,0.2-1.9,0.6-2.5c0.4-0.6,1-0.9,1.7-0.9c0.8,0,1.4,0.3,1.8,0.9
					c0.4,0.6,0.6,1.4,0.6,2.5c0,1.1-0.2,1.9-0.6,2.5c-0.4,0.6-1,0.9-1.8,0.9C452.1,37.2,451.5,37,451.1,36.4z M453.9,35.8
					c0.2-0.4,0.3-1.1,0.3-2c0-0.9-0.1-1.6-0.3-2c-0.2-0.4-0.6-0.6-1.1-0.6c-0.5,0-0.8,0.2-1.1,0.6c-0.2,0.4-0.3,1.1-0.3,2
					c0,0.9,0.1,1.6,0.3,2c0.2,0.4,0.6,0.6,1.1,0.6C453.3,36.5,453.7,36.3,453.9,35.8z"/>
			</g>
		</g>
		<g>
			<g>
				<path class="st0" d="M451.1,125.3c-0.2-0.3-0.3-0.6-0.3-1c0-0.6,0.2-1,0.6-1.4c0.4-0.3,1-0.5,1.6-0.5c0.4,0,0.9,0.1,1.3,0.2
					c0.4,0.1,0.7,0.3,1,0.6L455,124c-0.6-0.5-1.2-0.7-1.9-0.7c-0.9,0-1.4,0.4-1.4,1.1c0,0.4,0.1,0.6,0.4,0.8
					c0.2,0.2,0.6,0.3,1.1,0.3h0.8v0.8h-0.7c-0.5,0-0.8,0.1-1,0.3c-0.2,0.2-0.4,0.5-0.4,0.8c0,0.3,0.1,0.6,0.3,0.8
					c0.2,0.2,0.5,0.3,0.8,0.3c0.6,0,1.2-0.2,1.8-0.7l0.3,0.7c-0.3,0.2-0.6,0.4-1,0.6c-0.4,0.1-0.8,0.2-1.2,0.2
					c-0.6,0-1.1-0.1-1.5-0.5c-0.4-0.3-0.6-0.7-0.6-1.2c0-0.4,0.1-0.7,0.3-1c0.2-0.3,0.4-0.5,0.8-0.6
					C451.6,125.8,451.3,125.6,451.1,125.3z"/>
			</g>
			<g>
				<path class="st0" d="M448.9,123.3c0.4,0.6,0.6,1.4,0.6,2.5s-0.2,1.9-0.6,2.5c-0.4,0.6-1,0.9-1.8,0.9c-0.8,0-1.4-0.3-1.8-0.9
					c-0.4-0.6-0.6-1.4-0.6-2.5c0-1.1,0.2-1.9,0.6-2.5c0.4-0.6,1-0.9,1.8-0.9C447.9,122.4,448.5,122.7,448.9,123.3z M446.1,123.8
					c-0.2,0.4-0.3,1.1-0.3,2c0,0.9,0.1,1.6,0.3,2c0.2,0.4,0.6,0.6,1.1,0.6c0.5,0,0.8-0.2,1.1-0.6c0.2-0.4,0.3-1.1,0.3-2
					c0-0.9-0.1-1.6-0.3-2c-0.2-0.4-0.6-0.6-1.1-0.6C446.7,123.2,446.3,123.4,446.1,123.8z"/>
			</g>
		</g>
		<g>
			<g>
				<rect x="498.1" y="48.5" transform="matrix(0.5 0.866 -0.866 0.5 294.1473 -405.5745)" class="st0" width="0.5" height="6.8"/>
			</g>
			<g>
				<path class="st0" d="M495.4,54.2l-0.5-0.9l0.2-0.1l6.1-3.5l0.5,0.9l-0.2,0.1L495.4,54.2z M495.5,53.5L495.5,53.5l5.5-3.1l0,0
					L495.5,53.5z"/>
			</g>
		</g>
		<g>
			<g>
				<rect x="477.6" y="28.1" transform="matrix(0.866 0.5 -0.5 0.866 79.792 -234.7217)" class="st0" width="0.5" height="6.8"/>
			</g>
			<g>
				<path class="st0" d="M476.5,34.9l-0.9-0.5l3.6-6.3l0.9,0.5l-0.1,0.2L476.5,34.9z M476.3,34.3L476.3,34.3l3.2-5.5l0,0L476.3,34.3
					z"/>
			</g>
		</g>
	</g>
</g>
</svg>
