<?xml version="1.0" encoding="utf-8"?>
<!-- Generator: Adobe Illustrator 22.0.0, SVG Export Plug-In . SVG Version: 6.00 Build 0)  -->
<svg version="1.1" id="Layer_1" xmlns="http://www.w3.org/2000/svg" xmlns:xlink="http://www.w3.org/1999/xlink" x="0px" y="0px"
	 viewBox="0 0 200 50" style="enable-background:new 0 0 200 50;" xml:space="preserve">
<style type="text/css">
	.st0{fill:#9F9994;}
</style>
<g>
	<g>
		<path class="st0" d="M96.5,14.9c-0.3-0.4-0.4-0.9-0.4-1.7c0-0.7,0.1-1.3,0.4-1.7c0.3-0.4,0.6-0.6,1.2-0.6c0.5,0,0.9,0.2,1.2,0.6
			c0.3,0.4,0.4,0.9,0.4,1.7c0,0.7-0.1,1.3-0.4,1.7c-0.3,0.4-0.6,0.6-1.2,0.6C97.2,15.4,96.8,15.3,96.5,14.9z M98.4,14.5
			c0.1-0.3,0.2-0.7,0.2-1.3c0-0.6-0.1-1-0.2-1.3c-0.1-0.3-0.4-0.4-0.7-0.4c-0.3,0-0.5,0.1-0.7,0.4c-0.1,0.3-0.2,0.7-0.2,1.3
			c0,0.6,0.1,1,0.2,1.3c0.1,0.3,0.4,0.4,0.7,0.4C98,14.9,98.2,14.8,98.4,14.5z"/>
		<path class="st0" d="M100.2,14.9c-0.3-0.4-0.4-0.9-0.4-1.7c0-0.7,0.1-1.3,0.4-1.7c0.3-0.4,0.6-0.6,1.2-0.6c0.5,0,0.9,0.2,1.2,0.6
			c0.3,0.4,0.4,0.9,0.4,1.7c0,0.7-0.1,1.3-0.4,1.7c-0.3,0.4-0.6,0.6-1.2,0.6C100.9,15.4,100.5,15.3,100.2,14.9z M102.1,14.5
			c0.1-0.3,0.2-0.7,0.2-1.3c0-0.6-0.1-1-0.2-1.3c-0.1-0.3-0.4-0.4-0.7-0.4c-0.3,0-0.5,0.1-0.7,0.4c-0.1,0.3-0.2,0.7-0.2,1.3
			c0,0.6,0.1,1,0.2,1.3c0.1,0.3,0.4,0.4,0.7,0.4C101.7,14.9,101.9,14.8,102.1,14.5z"/>
	</g>
	<g>
		<path class="st0" d="M122.3,21.2c-0.3-0.4-0.4-0.9-0.4-1.7c0-0.7,0.1-1.3,0.4-1.7c0.3-0.4,0.6-0.6,1.2-0.6s0.9,0.2,1.2,0.6
			c0.3,0.4,0.4,0.9,0.4,1.7c0,0.7-0.1,1.3-0.4,1.7c-0.3,0.4-0.6,0.6-1.2,0.6S122.6,21.6,122.3,21.2z M124.2,20.8
			c0.1-0.3,0.2-0.7,0.2-1.3s-0.1-1-0.2-1.3c-0.1-0.3-0.4-0.4-0.7-0.4c-0.3,0-0.5,0.1-0.7,0.4c-0.1,0.3-0.2,0.7-0.2,1.3
			c0,0.6,0.1,1,0.2,1.3c0.1,0.3,0.4,0.4,0.7,0.4S124,21.1,124.2,20.8z"/>
		<path class="st0" d="M127.7,21.2h1v0.5h-2.5v-0.5h1v-3.1l-0.9,0.5v-0.6l1.2-0.7h0.4V21.2z"/>
	</g>
	<g>
		<path class="st0" d="M138.7,38.4c-0.3-0.4-0.4-0.9-0.4-1.7c0-0.7,0.1-1.3,0.4-1.7c0.3-0.4,0.6-0.6,1.2-0.6c0.5,0,0.9,0.2,1.2,0.6
			c0.3,0.4,0.4,0.9,0.4,1.7c0,0.7-0.1,1.3-0.4,1.7c-0.3,0.4-0.6,0.6-1.2,0.6C139.3,39,138.9,38.8,138.7,38.4z M140.5,38.1
			c0.1-0.3,0.2-0.7,0.2-1.3c0-0.6-0.1-1-0.2-1.3c-0.1-0.3-0.4-0.4-0.7-0.4c-0.3,0-0.5,0.1-0.7,0.4c-0.1,0.3-0.2,0.7-0.2,1.3
			c0,0.6,0.1,1,0.2,1.3c0.1,0.3,0.4,0.4,0.7,0.4C140.1,38.5,140.4,38.4,140.5,38.1z"/>
		<path class="st0" d="M145,38.4V39h-2.9v-0.5l1.5-1.6c0.2-0.2,0.3-0.4,0.4-0.6c0.1-0.2,0.1-0.3,0.1-0.5c0-0.2-0.1-0.4-0.2-0.5
			c-0.1-0.1-0.3-0.2-0.5-0.2c-0.4,0-0.8,0.2-1.2,0.5l-0.2-0.5c0.2-0.2,0.4-0.3,0.7-0.4c0.3-0.1,0.5-0.1,0.8-0.1c0.4,0,0.7,0.1,1,0.3
			c0.2,0.2,0.4,0.5,0.4,0.8c0,0.3-0.1,0.5-0.2,0.7c-0.1,0.2-0.3,0.5-0.5,0.8l-1.2,1.3H145z"/>
	</g>
	<g>
		<path class="st0" d="M56.6,38.4h1V39H55v-0.5h1v-3.1l-0.9,0.5v-0.6l1.2-0.7h0.4V38.4z"/>
		<path class="st0" d="M58.6,38.4c-0.3-0.4-0.4-0.9-0.4-1.7c0-0.7,0.1-1.3,0.4-1.7c0.3-0.4,0.6-0.6,1.2-0.6s0.9,0.2,1.2,0.6
			c0.3,0.4,0.4,0.9,0.4,1.7c0,0.7-0.1,1.3-0.4,1.7c-0.3,0.4-0.6,0.6-1.2,0.6S58.9,38.8,58.6,38.4z M60.5,38.1
			c0.1-0.3,0.2-0.7,0.2-1.3c0-0.6-0.1-1-0.2-1.3c-0.1-0.3-0.4-0.4-0.7-0.4c-0.3,0-0.5,0.1-0.7,0.4c-0.1,0.3-0.2,0.7-0.2,1.3
			c0,0.6,0.1,1,0.2,1.3c0.1,0.3,0.4,0.4,0.7,0.4C60.1,38.5,60.3,38.4,60.5,38.1z"/>
	</g>
	<g>
		<path class="st0" d="M73.1,21.2h1v0.5h-2.5v-0.5h1v-3.1l-0.9,0.5v-0.6l1.2-0.7h0.4V21.2z"/>
		<path class="st0" d="M76.8,21.2h1v0.5h-2.5v-0.5h1v-3.1l-0.9,0.5v-0.6l1.2-0.7h0.4V21.2z"/>
	</g>
</g>
</svg>
