<?xml version="1.0" encoding="utf-8"?>
<!-- Generator: Adobe Illustrator 22.0.0, SVG Export Plug-In . SVG Version: 6.00 Build 0)  -->
<svg version="1.1" id="Layer_1" xmlns="http://www.w3.org/2000/svg" xmlns:xlink="http://www.w3.org/1999/xlink" x="0px" y="0px"
	 viewBox="0 0 200 50" style="enable-background:new 0 0 200 50;" xml:space="preserve">
<style type="text/css">
	.st0{fill:#9F9994;}
</style>
<g>
	<g>
		<rect x="99.7" y="7" class="st0" width="0.5" height="3.4"/>
	</g>
	<g>
		<rect x="71.6" y="14.5" transform="matrix(0.866 -0.5 0.5 0.866 1.5 38.1008)" class="st0" width="0.5" height="3.4"/>
	</g>
	<g>
		<rect x="51" y="35.2" transform="matrix(0.5 -0.866 0.866 0.5 -6.3134 62.7948)" class="st0" width="0.5" height="3.4"/>
	</g>
	<g>
		<rect x="148.5" y="35.2" transform="matrix(0.5 0.866 -0.866 0.5 106.3065 -110.4062)" class="st0" width="0.5" height="3.4"/>
	</g>
	<g>
		
			<rect x="127.9" y="14.5" transform="matrix(0.8661 0.4999 -0.4999 0.8661 25.2898 -61.8941)" class="st0" width="0.5" height="3.4"/>
	</g>
	<g>
		<path class="st0" d="M77.6,13.7c0,0.3-0.2,0.5-0.5,0.5c-0.3,0-0.5-0.2-0.5-0.5s0.2-0.5,0.5-0.5C77.4,13.2,77.6,13.4,77.6,13.7z"/>
	</g>
	<g>
		<path class="st0" d="M83.1,11.5c0,0.3-0.2,0.5-0.5,0.5c-0.3,0-0.5-0.2-0.5-0.5c0-0.3,0.2-0.5,0.5-0.5C82.9,11,83.1,11.2,83.1,11.5
			z"/>
	</g>
	<g>
		<path class="st0" d="M88.8,9.9c0,0.3-0.2,0.5-0.5,0.5c-0.3,0-0.5-0.2-0.5-0.5c0-0.3,0.2-0.5,0.5-0.5C88.6,9.4,88.8,9.7,88.8,9.9z"
			/>
	</g>
	<g>
		<circle class="st0" cx="94.1" cy="9" r="0.5"/>
	</g>
	<g>
		<path class="st0" d="M106.4,9c0,0.3-0.2,0.5-0.5,0.5c-0.3,0-0.5-0.2-0.5-0.5c0-0.3,0.2-0.5,0.5-0.5C106.2,8.5,106.4,8.7,106.4,9z"
			/>
	</g>
	<g>
		<path class="st0" d="M112.2,9.9c0,0.3-0.2,0.5-0.5,0.5c-0.3,0-0.5-0.2-0.5-0.5c0-0.3,0.2-0.5,0.5-0.5C112,9.4,112.2,9.7,112.2,9.9
			z"/>
	</g>
	<g>
		<path class="st0" d="M117.9,11.5c0,0.3-0.2,0.5-0.5,0.5c-0.3,0-0.5-0.2-0.5-0.5c0-0.3,0.2-0.5,0.5-0.5
			C117.7,11,117.9,11.2,117.9,11.5z"/>
	</g>
	<g>
		<circle class="st0" cx="122.9" cy="13.6" r="0.5"/>
	</g>
	<g>
		<circle class="st0" cx="133.1" cy="19.5" r="0.5"/>
	</g>
	<g>
		<circle class="st0" cx="137.7" cy="23.2" r="0.5"/>
	</g>
	<g>
		<circle class="st0" cx="141.9" cy="27.3" r="0.5"/>
	</g>
	<g>
		<path class="st0" d="M146.1,31.9c0,0.3-0.2,0.5-0.5,0.5c-0.3,0-0.5-0.2-0.5-0.5c0-0.3,0.2-0.5,0.5-0.5
			C145.8,31.4,146.1,31.6,146.1,31.9z"/>
	</g>
	<g>
		<path class="st0" d="M54.9,31.9c0,0.3-0.2,0.5-0.5,0.5s-0.5-0.2-0.5-0.5c0-0.3,0.2-0.5,0.5-0.5S54.9,31.6,54.9,31.9z"/>
	</g>
	<g>
		<circle class="st0" cx="58.1" cy="27.3" r="0.5"/>
	</g>
	<g>
		<circle class="st0" cx="62.3" cy="23.2" r="0.5"/>
	</g>
	<g>
		<circle class="st0" cx="66.9" cy="19.5" r="0.5"/>
	</g>
</g>
</svg>
