<?xml version="1.0" encoding="utf-8"?>
<!-- Generator: Adobe Illustrator 22.0.0, SVG Export Plug-In . SVG Version: 6.00 Build 0)  -->
<svg version="1.1" id="Layer_1" xmlns="http://www.w3.org/2000/svg" xmlns:xlink="http://www.w3.org/1999/xlink" x="0px" y="0px"
	 viewBox="0 0 900 159.7" style="enable-background:new 0 0 900 159.7;" xml:space="preserve">
<style type="text/css">
	.st0{fill:#231F20;}
</style>
<g>
	<g>
		<g>
			<rect x="449.7" y="20.6" class="st0" width="0.5" height="6.8"/>
			<path class="st0" d="M450.5,27.7h-1v-7.3h1V27.7z M450,27.2L450,27.2l0.1-6.4H450V27.2z"/>
		</g>
		<g>
			<rect x="421.8" y="28.1" transform="matrix(0.866 -0.5 0.5 0.866 40.7851 215.2783)" class="st0" width="0.5" height="6.8"/>
			<path class="st0" d="M423.5,34.9l-0.1-0.2l-3.5-6.1l0.9-0.5l0.1,0.2l3.5,6.1L423.5,34.9z M420.5,28.8l3.2,5.5l0,0L420.5,28.8
				L420.5,28.8z"/>
		</g>
		<g>
			<rect x="401.4" y="48.5" transform="matrix(0.5 -0.866 0.866 0.5 155.8526 373.8484)" class="st0" width="0.5" height="6.8"/>
			<path class="st0" d="M404.6,54.2l-6.3-3.6l0.5-0.9l6.3,3.6L404.6,54.2z M398.9,50.4l5.5,3.2l0,0L398.9,50.4L398.9,50.4z"/>
		</g>
		<g>
			
				<rect x="394" y="76.4" transform="matrix(6.123234e-17 -1 1 6.123234e-17 314.3701 474.0593)" class="st0" width="0.5" height="6.8"/>
			<path class="st0" d="M397.9,80.3h-7.3v-1h7.3V80.3z M391,79.9h6.4v-0.1L391,79.9L391,79.9z"/>
		</g>
		<g>
			<rect x="401.4" y="104.3" transform="matrix(-0.5 -0.866 0.866 -0.5 509.2297 509.4783)" class="st0" width="0.5" height="6.8"/>
			<path class="st0" d="M398.8,110l-0.5-0.9l0.2-0.1l6.1-3.5l0.5,0.9l-0.2,0.1L398.8,110z M398.9,109.3L398.9,109.3l5.5-3.1l0,0
				L398.9,109.3z"/>
		</g>
		<g>
			<rect x="421.8" y="124.7" transform="matrix(-0.866 -0.5 0.5 -0.866 723.5851 450.1961)" class="st0" width="0.5" height="6.8"/>
			<path class="st0" d="M420.7,131.6l-0.9-0.5l3.6-6.3l0.9,0.5L420.7,131.6z M420.5,130.9L420.5,130.9l3.2-5.5l0,0L420.5,130.9z"/>
		</g>
		<g>
			
				<rect x="449.7" y="132.2" transform="matrix(-1 -1.009918e-10 1.009918e-10 -1 900.0001 271.2596)" class="st0" width="0.5" height="6.8"/>
			<path class="st0" d="M450.5,139.3h-1V132h1V139.3z M450,138.8L450,138.8l0.1-6.4H450V138.8z"/>
		</g>
		<g>
			<rect x="477.6" y="124.7" transform="matrix(-0.866 0.5 -0.5 -0.866 955.8379 0.1959)" class="st0" width="0.5" height="6.8"/>
			<path class="st0" d="M479.3,131.6l-0.1-0.2l-3.5-6.1l0.9-0.5l0.1,0.2l3.5,6.1L479.3,131.6z M476.3,125.4l3.2,5.5l0,0L476.3,125.4
				L476.3,125.4z"/>
		</g>
		<g>
			
				<rect x="498.1" y="104.3" transform="matrix(-0.5 0.866 -0.866 -0.5 840.7703 -269.9448)" class="st0" width="0.5" height="6.8"/>
			<path class="st0" d="M501.2,110l-6.3-3.6l0.5-0.9l6.3,3.6L501.2,110z M495.5,106.2l5.5,3.2l0,0L495.5,106.2L495.5,106.2z"/>
		</g>
		<g>
			
				<rect x="505.5" y="76.4" transform="matrix(-1.671589e-10 1 -1 -1.671589e-10 585.6297 -425.9409)" class="st0" width="0.5" height="6.8"/>
			<path class="st0" d="M509.4,80.3h-7.3v-1h7.3V80.3z M502.6,79.9h6.4v-0.1L502.6,79.9L502.6,79.9z"/>
		</g>
		<g>
			<rect x="498.1" y="48.5" transform="matrix(0.5 0.866 -0.866 0.5 294.1473 -405.5745)" class="st0" width="0.5" height="6.8"/>
			<path class="st0" d="M495.4,54.2l-0.5-0.9l0.2-0.1l6.1-3.5l0.5,0.9l-0.2,0.1L495.4,54.2z M495.5,53.5L495.5,53.5l5.5-3.1l0,0
				L495.5,53.5z"/>
		</g>
		<g>
			<rect x="477.6" y="28.1" transform="matrix(0.866 0.5 -0.5 0.866 79.792 -234.7217)" class="st0" width="0.5" height="6.8"/>
			<path class="st0" d="M476.5,34.9l-0.9-0.5l3.6-6.3l0.9,0.5L476.5,34.9z M476.3,34.3L476.3,34.3l3.2-5.5l0,0L476.3,34.3z"/>
		</g>
	</g>
	<g>
		<g>
			<rect x="449.7" y="20.6" class="st0" width="0.5" height="6.8"/>
			<rect x="449.3" y="20.2" class="st0" width="1.4" height="7.7"/>
		</g>
		<g>
			
				<rect x="394" y="76.4" transform="matrix(6.123234e-17 -1 1 6.123234e-17 314.3701 474.0593)" class="st0" width="0.5" height="6.8"/>
			<rect x="390.3" y="79.1" class="st0" width="7.7" height="1.4"/>
		</g>
		<g>
			
				<rect x="449.7" y="132.2" transform="matrix(-1 -1.009918e-10 1.009918e-10 -1 900.0001 271.2596)" class="st0" width="0.5" height="6.8"/>
			<rect x="449.3" y="131.8" class="st0" width="1.4" height="7.7"/>
		</g>
		<g>
			
				<rect x="505.5" y="76.4" transform="matrix(-1.671589e-10 1 -1 -1.671589e-10 585.6297 -425.9409)" class="st0" width="0.5" height="6.8"/>
			<rect x="501.9" y="79.1" class="st0" width="7.7" height="1.4"/>
		</g>
	</g>
</g>
</svg>
