<?xml version="1.0" encoding="utf-8"?>
<!-- Generator: Adobe Illustrator 22.0.0, SVG Export Plug-In . SVG Version: 6.00 Build 0)  -->
<svg version="1.1" id="Layer_1" xmlns="http://www.w3.org/2000/svg" xmlns:xlink="http://www.w3.org/1999/xlink" x="0px" y="0px"
	 viewBox="0 0 200 50" style="enable-background:new 0 0 200 50;" xml:space="preserve">
<style type="text/css">
	.st0{fill:#9F9994;}
</style>
<g>
	<g>
		<path class="st0" d="M98.4,17.1h1.2v0.8h-3.3v-0.8h1.2v-3.4l-1.1,0.6v-0.9l1.5-0.9h0.6V17.1z"/>
		<path class="st0" d="M104,17.1v0.8h-3.6v-0.7l1.8-1.9c0.2-0.2,0.4-0.4,0.5-0.6c0.1-0.2,0.1-0.4,0.1-0.6c0-0.2-0.1-0.4-0.2-0.6
			c-0.1-0.1-0.3-0.2-0.6-0.2c-0.5,0-0.9,0.2-1.4,0.6l-0.3-0.7c0.2-0.2,0.5-0.3,0.8-0.5c0.3-0.1,0.7-0.2,1-0.2c0.5,0,1,0.1,1.3,0.4
			c0.3,0.3,0.5,0.6,0.5,1.1c0,0.3-0.1,0.6-0.2,0.9c-0.1,0.3-0.4,0.6-0.7,0.9l-1.3,1.4H104z"/>
	</g>
	<path class="st0" d="M120.8,22.7h1.2v0.8h-3.3v-0.8h1.2v-3.5l-1.1,0.7V19l1.5-0.9h0.6V22.7z"/>
	<path class="st0" d="M135.8,36.7v0.8h-3.5v-0.7l1.8-1.9c0.2-0.2,0.4-0.4,0.5-0.6c0.1-0.2,0.1-0.4,0.1-0.6c0-0.2-0.1-0.4-0.2-0.5
		c-0.1-0.1-0.3-0.2-0.6-0.2c-0.5,0-0.9,0.2-1.4,0.5l-0.3-0.7c0.2-0.2,0.5-0.3,0.8-0.4c0.3-0.1,0.7-0.2,1-0.2c0.5,0,0.9,0.1,1.2,0.4
		c0.3,0.3,0.5,0.6,0.5,1c0,0.3-0.1,0.6-0.2,0.8c-0.1,0.3-0.3,0.6-0.7,0.9l-1.3,1.4H135.8z"/>
	<g>
		<path class="st0" d="M66.3,36.7h1.1v0.8h-3.2v-0.8h1.1v-3.4l-1.1,0.6v-0.8l1.5-0.9h0.6V36.7z"/>
		<path class="st0" d="M67.9,36.8c-0.3-0.5-0.5-1.1-0.5-2c0-0.9,0.2-1.5,0.5-2c0.3-0.5,0.8-0.7,1.4-0.7c0.6,0,1.1,0.2,1.4,0.7
			c0.3,0.5,0.5,1.1,0.5,2c0,0.9-0.2,1.5-0.5,2c-0.3,0.5-0.8,0.7-1.4,0.7C68.7,37.5,68.2,37.3,67.9,36.8z M70.1,36.3
			c0.2-0.3,0.2-0.8,0.2-1.5c0-0.7-0.1-1.2-0.2-1.5c-0.2-0.3-0.4-0.5-0.7-0.5c-0.3,0-0.6,0.2-0.7,0.5c-0.2,0.3-0.2,0.8-0.2,1.5
			c0,0.7,0.1,1.2,0.2,1.5c0.2,0.3,0.4,0.5,0.7,0.5C69.7,36.8,69.9,36.6,70.1,36.3z"/>
	</g>
	<g>
		<path class="st0" d="M79.3,22.7h1.2v0.8h-3.3v-0.8h1.2v-3.5l-1.1,0.7V19l1.5-0.9h0.6V22.7z"/>
		<path class="st0" d="M83.1,22.7h1.2v0.8H81v-0.8h1.2v-3.5l-1.1,0.7V19l1.5-0.9h0.6V22.7z"/>
	</g>
</g>
</svg>
