<?xml version="1.0" encoding="utf-8"?>
<!-- Generator: Adobe Illustrator 22.0.0, SVG Export Plug-In . SVG Version: 6.00 Build 0)  -->
<svg version="1.1" id="Layer_1" xmlns="http://www.w3.org/2000/svg" xmlns:xlink="http://www.w3.org/1999/xlink" x="0px" y="0px"
	 viewBox="0 0 200 50" style="enable-background:new 0 0 200 50;" xml:space="preserve">
<style type="text/css">
	.st0{fill:#9F9994;}
</style>
<g>
	<g>
		<path class="st0" d="M98.4,17h1.1v0.8h-3.2V17h1.1v-3.3l-1,0.6v-0.8l1.4-0.9h0.5V17z"/>
		<path class="st0" d="M103.9,17v0.8h-3.5V17l1.7-1.9c0.2-0.2,0.4-0.4,0.5-0.6c0.1-0.2,0.1-0.4,0.1-0.6c0-0.2-0.1-0.4-0.2-0.5
			c-0.1-0.1-0.3-0.2-0.6-0.2c-0.5,0-0.9,0.2-1.4,0.5l-0.3-0.7c0.2-0.2,0.5-0.3,0.8-0.4c0.3-0.1,0.6-0.2,1-0.2c0.5,0,0.9,0.1,1.2,0.4
			c0.3,0.3,0.5,0.6,0.5,1c0,0.3-0.1,0.6-0.2,0.8c-0.1,0.3-0.3,0.6-0.6,0.9l-1.3,1.3H103.9z"/>
	</g>
	<rect x="79" y="17.8" transform="matrix(0.8661 -0.4999 0.4999 0.8661 0.3111 42.4689)" class="st0" width="0.8" height="5.7"/>
	<rect x="63.9" y="32.9" transform="matrix(0.5 -0.866 0.866 0.5 1.241 73.5903)" class="st0" width="0.8" height="5.7"/>
	<rect x="135.2" y="32.9" transform="matrix(0.5 0.866 -0.866 0.5 98.7576 -99.6141)" class="st0" width="0.8" height="5.7"/>
	
		<rect x="120.2" y="17.8" transform="matrix(0.8661 0.4999 -0.4999 0.8661 26.4743 -57.5146)" class="st0" width="0.8" height="5.7"/>
</g>
</svg>
