<?xml version="1.0" encoding="utf-8"?>
<!-- Generator: Adobe Illustrator 22.0.0, SVG Export Plug-In . SVG Version: 6.00 Build 0)  -->
<svg version="1.1" id="Layer_1" xmlns="http://www.w3.org/2000/svg" xmlns:xlink="http://www.w3.org/1999/xlink" x="0px" y="0px"
	 viewBox="0 0 200 50" style="enable-background:new 0 0 200 50;" xml:space="preserve">
<style type="text/css">
	.st0{fill:#9F9994;}
</style>
<path class="st0" d="M100,6.5c-22.6,0-42.3,12.6-52.5,31.1c0.1,0,0.1,0,0.2,0.1c0,0,0,0,0.1,0c0,0,0,0,0.1,0c0,0,0,0,0,0l1.6,0.9
	c0,0,0,0,0,0l0,0c0,0,0,0,0,0c0,0,0,0,0.1,0.1c0.1,0,0.2,0.1,0.3,0.1c0,0,0,0,0,0C59.6,21.2,78.4,9.2,100,9.2
	c21.6,0,40.5,12.1,50.2,29.8c0.1-0.1,0.2-0.2,0.3-0.2l0,0l0,0c0.1,0,0.1-0.1,0.2-0.1l1.4-0.8l0,0c0.1-0.1,0.2-0.1,0.3-0.1
	C142.3,19.1,122.6,6.5,100,6.5z M50.7,36.6L49,35.7c0.7-1.2,1.5-2.4,2.4-3.6l1.5,1.1C52.1,34.3,51.4,35.4,50.7,36.6z M53.7,32
	l-1.5-1.1c1-1.3,2-2.5,3.1-3.8l1.4,1.3C55.6,29.6,54.7,30.8,53.7,32z M57.6,27.4l-1.4-1.3c1.1-1.2,2.2-2.3,3.4-3.4l1.3,1.4
	C59.7,25.2,58.6,26.3,57.6,27.4z M61.9,23.2l-1.3-1.4c1.2-1.1,2.5-2.1,3.8-3.1l1.1,1.5C64.3,21.2,63.1,22.2,61.9,23.2z M66.6,19.4
	l-1.1-1.5c1.2-0.8,2.4-1.7,3.6-2.4l0.9,1.6C68.9,17.9,67.8,18.6,66.6,19.4z M72.2,15.9l-0.9-1.6c1.3-0.7,2.5-1.3,3.9-1.9l0.8,1.7
	C74.6,14.7,73.4,15.3,72.2,15.9z M77.2,13.5l-0.8-1.7c1.5-0.6,3-1.2,4.5-1.7l0.6,1.8C80,12.3,78.6,12.9,77.2,13.5z M82.8,11.4
	l-0.6-1.8c1.5-0.5,3.1-0.9,4.7-1.2l0.4,1.8C85.8,10.6,84.3,10.9,82.8,11.4z M88.7,9.9l-0.4-1.8c1.6-0.3,3.2-0.6,4.8-0.7l0.2,1.9
	C91.7,9.4,90.2,9.6,88.7,9.9z M98.8,8.8c-1.4,0-2.8,0.1-4.1,0.2l-0.2-1.9C95.9,7,97.3,7,98.8,6.9V8.8z M105.3,9
	c-1.4-0.1-2.7-0.2-4.1-0.2V6.9c1.5,0,2.9,0.1,4.3,0.2L105.3,9z M111.3,9.9c-1.5-0.3-3.1-0.5-4.6-0.7l0.2-1.9
	c1.6,0.2,3.2,0.4,4.8,0.7L111.3,9.9z M117.2,11.4c-1.5-0.5-3-0.8-4.5-1.2l0.4-1.8c1.6,0.4,3.2,0.8,4.7,1.2L117.2,11.4z M122.8,13.5
	c-1.4-0.6-2.9-1.2-4.3-1.7l0.6-1.8c1.5,0.5,3.1,1.1,4.5,1.7L122.8,13.5z M127.8,15.9c-1.2-0.7-2.4-1.3-3.7-1.9l0.8-1.7
	c1.3,0.6,2.6,1.2,3.9,1.9L127.8,15.9z M133.4,19.4c-1.1-0.8-2.3-1.6-3.5-2.3l0.9-1.6c1.2,0.8,2.4,1.6,3.6,2.4L133.4,19.4z
	 M134.5,20.3l1.1-1.5c1.3,1,2.5,2,3.8,3.1l-1.3,1.4C136.9,22.2,135.7,21.2,134.5,20.3z M139.1,24.1l1.3-1.4c1.2,1.1,2.3,2.2,3.4,3.4
	l-1.4,1.3C141.4,26.3,140.3,25.2,139.1,24.1z M143.3,28.4l1.4-1.3c1.1,1.2,2.1,2.5,3.1,3.8l-1.5,1.1
	C145.3,30.8,144.4,29.6,143.3,28.4z M149.3,36.6c-0.7-1.2-1.5-2.3-2.3-3.4l1.5-1.1c0.8,1.2,1.6,2.4,2.4,3.6L149.3,36.6z"/>
</svg>
