<?xml version="1.0" encoding="utf-8"?>
<!-- Generator: Adobe Illustrator 22.0.0, SVG Export Plug-In . SVG Version: 6.00 Build 0)  -->
<svg version="1.1" id="Layer_1" xmlns="http://www.w3.org/2000/svg" xmlns:xlink="http://www.w3.org/1999/xlink" x="0px" y="0px"
	 viewBox="0 0 200 50" style="enable-background:new 0 0 200 50;" xml:space="preserve">
<style type="text/css">
	.st0{fill:#9F9994;}
</style>
<g>
	<path class="st0" d="M122.5,21.9h1.4v-4.2c0-0.2,0-0.4,0-0.4h0c0,0-0.1,0.1-0.3,0.4l-0.6,0.6l-0.5-0.6l1.5-1.5h0.8v5.7h1.4v0.7
		h-3.7V21.9z"/>
	<path class="st0" d="M138.3,38.5c0-2.3,3.2-2.6,3.2-4.1c0-0.7-0.5-1.1-1.2-1.1c-0.8,0-1.3,0.9-1.3,0.9l-0.6-0.4c0,0,0.6-1.2,2-1.2
		c1.2,0,2,0.7,2,1.8c0,2.1-3.1,2.4-3.1,3.9h2.6v-0.9h0.8v1.6h-4.3C138.3,38.8,138.3,38.6,138.3,38.5z"/>
	<g>
		<path class="st0" d="M57.4,38.1h1.4V34c0-0.2,0-0.4,0-0.4h0c0,0-0.1,0.1-0.3,0.4l-0.6,0.6L57.3,34l1.5-1.5h0.8v5.7H61v0.7h-3.7
			V38.1z"/>
		<path class="st0" d="M62,35.7c0-1.8,0.6-3.3,2.3-3.3c1.7,0,2.3,1.5,2.3,3.3c0,1.8-0.6,3.3-2.3,3.3C62.6,39,62,37.5,62,35.7z
			 M65.6,35.7c0-1.4-0.3-2.5-1.3-2.5c-1.1,0-1.3,1.1-1.3,2.5c0,1.4,0.3,2.5,1.3,2.5C65.3,38.2,65.6,37.1,65.6,35.7z"/>
	</g>
	<g>
		<path class="st0" d="M73.8,21.9h1.4v-4.2c0-0.2,0-0.4,0-0.4h0c0,0-0.1,0.1-0.3,0.4l-0.6,0.6l-0.5-0.6l1.5-1.5h0.8v5.7h1.4v0.7
			h-3.7V21.9z"/>
		<path class="st0" d="M78.4,21.9h1.4v-4.2c0-0.2,0-0.4,0-0.4h0c0,0-0.1,0.1-0.3,0.4l-0.6,0.6l-0.5-0.6l1.5-1.5h0.8v5.7h1.4v0.7
			h-3.7V21.9z"/>
	</g>
	<g>
		<path class="st0" d="M100,12.5l2.1,3h-4.2L100,12.5 M100,11l-3.8,5.4h7.5L100,11L100,11z"/>
		<circle class="st0" cx="96.4" cy="12.2" r="0.9"/>
		<circle class="st0" cx="103.7" cy="12.2" r="0.9"/>
	</g>
</g>
</svg>
