<?xml version="1.0" encoding="utf-8"?>
<!-- Generator: Adobe Illustrator 22.0.0, SVG Export Plug-In . SVG Version: 6.00 Build 0)  -->
<svg version="1.1" id="Layer_1" xmlns="http://www.w3.org/2000/svg" xmlns:xlink="http://www.w3.org/1999/xlink" x="0px" y="0px"
	 viewBox="0 0 200 50" style="enable-background:new 0 0 200 50;" xml:space="preserve">
<style type="text/css">
	.st0{fill:#9F9994;}
</style>
<g>
	<g>
		<g>
			<rect x="93.8" y="7.8" transform="matrix(0.9945 -0.1046 0.1046 0.9945 -0.4821 9.8918)" class="st0" width="0.5" height="3.5"/>
		</g>
		<g>
			
				<rect x="87.9" y="8.7" transform="matrix(0.9781 -0.2079 0.2079 0.9781 -0.2526 18.5481)" class="st0" width="0.5" height="3.5"/>
		</g>
		<g>
			<rect x="82.1" y="10.3" transform="matrix(0.9511 -0.309 0.309 0.9511 0.3138 26.031)" class="st0" width="0.5" height="3.5"/>
		</g>
		<g>
			
				<rect x="76.5" y="12.4" transform="matrix(0.9135 -0.4069 0.4069 0.9135 0.8745 32.4519)" class="st0" width="0.5" height="3.5"/>
		</g>
		<g>
			<rect x="66.1" y="18.4" transform="matrix(0.809 -0.5878 0.5878 0.809 0.8403 42.8779)" class="st0" width="0.5" height="3.5"/>
		</g>
		<g>
			
				<rect x="61.5" y="22.2" transform="matrix(0.7431 -0.6692 0.6692 0.7431 -0.1385 47.4636)" class="st0" width="0.5" height="3.5"/>
		</g>
		<g>
			
				<rect x="57.3" y="26.4" transform="matrix(0.6691 -0.7432 0.7432 0.6691 -1.8853 52.0537)" class="st0" width="0.5" height="3.5"/>
		</g>
		<g>
			
				<rect x="53.5" y="31.1" transform="matrix(0.5877 -0.8091 0.8091 0.5877 -4.3759 57.0021)" class="st0" width="0.5" height="3.5"/>
		</g>
		<g>
			
				<rect x="146" y="31.1" transform="matrix(0.5877 0.8091 -0.8091 0.5877 86.8283 -104.8081)" class="st0" width="0.5" height="3.5"/>
		</g>
		<g>
			
				<rect x="142.2" y="26.4" transform="matrix(0.6692 0.7431 -0.7431 0.6692 68.0446 -96.5688)" class="st0" width="0.5" height="3.5"/>
		</g>
		<g>
			
				<rect x="138" y="22.2" transform="matrix(0.7431 0.6692 -0.6692 0.7431 51.5265 -86.3813)" class="st0" width="0.5" height="3.5"/>
		</g>
		<g>
			
				<rect x="133.3" y="18.4" transform="matrix(0.8091 0.5877 -0.5877 0.8091 37.3526 -74.6788)" class="st0" width="0.5" height="3.5"/>
		</g>
		<g>
			
				<rect x="123" y="12.4" transform="matrix(0.9135 0.4069 -0.4069 0.9135 16.4292 -48.9242)" class="st0" width="0.5" height="3.5"/>
		</g>
		<g>
			
				<rect x="117.4" y="10.3" transform="matrix(0.9511 0.309 -0.309 0.9511 9.4752 -35.7735)" class="st0" width="0.5" height="3.5"/>
		</g>
		<g>
			
				<rect x="111.6" y="8.7" transform="matrix(0.9781 0.2079 -0.2079 0.9781 4.6229 -23.0332)" class="st0" width="0.5" height="3.5"/>
		</g>
		<g>
			
				<rect x="105.7" y="7.8" transform="matrix(0.9945 0.1046 -0.1046 0.9945 1.5802 -11.0378)" class="st0" width="0.5" height="3.5"/>
		</g>
	</g>
	<g>
		<path class="st0" d="M99.6,9.2c0.1,0.1,0.2,0.1,0.2,0.2c0.1,0.1,0.1,0.2,0.1,0.4c0,0.1,0,0.3-0.1,0.4c-0.1,0.1-0.1,0.2-0.3,0.3
			c-0.1,0.1-0.2,0.1-0.4,0.1c-0.3,0-0.5-0.1-0.6-0.3c-0.1-0.2-0.2-0.5-0.2-0.8c0-0.2,0-0.4,0.1-0.6c0.1-0.2,0.2-0.3,0.3-0.4
			c0.1-0.1,0.3-0.1,0.5-0.1c0.1,0,0.3,0,0.4,0.1c0.1,0,0.2,0.1,0.3,0.2l-0.1,0.3c-0.2-0.2-0.4-0.2-0.6-0.2c-0.2,0-0.3,0.1-0.4,0.2
			c-0.1,0.1-0.1,0.3-0.1,0.6c0-0.1,0.1-0.2,0.2-0.2c0.1-0.1,0.2-0.1,0.3-0.1C99.4,9.1,99.5,9.1,99.6,9.2z M99.5,10.1
			c0.1-0.1,0.1-0.2,0.1-0.3c0-0.1,0-0.2-0.1-0.3c-0.1-0.1-0.2-0.1-0.3-0.1s-0.2,0-0.3,0.1c-0.1,0.1-0.1,0.2-0.1,0.3s0,0.2,0.1,0.3
			c0.1,0.1,0.2,0.1,0.3,0.1C99.3,10.2,99.4,10.2,99.5,10.1z"/>
		<path class="st0" d="M100.5,10.2c-0.1-0.2-0.2-0.5-0.2-0.8c0-0.4,0.1-0.6,0.2-0.8c0.1-0.2,0.3-0.3,0.6-0.3s0.5,0.1,0.6,0.3
			c0.1,0.2,0.2,0.5,0.2,0.8c0,0.4-0.1,0.6-0.2,0.8c-0.1,0.2-0.3,0.3-0.6,0.3S100.6,10.4,100.5,10.2z M101.4,10
			c0.1-0.1,0.1-0.3,0.1-0.6c0-0.3,0-0.5-0.1-0.6c-0.1-0.1-0.2-0.2-0.3-0.2c-0.1,0-0.2,0.1-0.3,0.2c-0.1,0.1-0.1,0.3-0.1,0.6
			c0,0.3,0,0.5,0.1,0.6c0.1,0.1,0.2,0.2,0.3,0.2C101.2,10.2,101.3,10.1,101.4,10z"/>
	</g>
	<g>
		<path class="st0" d="M148.5,37.9l0.2,0.4l-0.3,0.2l-0.7-1.2l0.3-0.2l0.2,0.4l1.2-0.7l-0.5-0.3l0.3-0.2l0.6,0.3l0.1,0.2L148.5,37.9
			z"/>
		<path class="st0" d="M148.9,38.8c0.1-0.2,0.3-0.4,0.6-0.6c0.3-0.2,0.6-0.3,0.8-0.2c0.2,0,0.4,0.1,0.5,0.4c0.1,0.2,0.1,0.4,0.1,0.7
			c-0.1,0.2-0.3,0.4-0.6,0.6c-0.3,0.2-0.6,0.3-0.8,0.2c-0.2,0-0.4-0.1-0.5-0.4S148.8,39.1,148.9,38.8z M149.6,39.5
			c0.1,0,0.3-0.1,0.6-0.2c0.2-0.1,0.4-0.3,0.5-0.4c0.1-0.1,0.1-0.2,0-0.4s-0.2-0.2-0.3-0.2c-0.1,0-0.3,0.1-0.6,0.2
			c-0.2,0.1-0.4,0.3-0.5,0.4c-0.1,0.1-0.1,0.2,0,0.4S149.4,39.5,149.6,39.5z"/>
	</g>
	<g>
		<path class="st0" d="M50.1,38.2c0.1-0.1,0.2-0.1,0.3-0.1c0.1,0,0.2,0,0.4,0.1c0.1,0.1,0.2,0.2,0.3,0.3c0.1,0.1,0.1,0.2,0.1,0.4
			c0,0.1-0.1,0.3-0.1,0.4c-0.1,0.1-0.2,0.2-0.3,0.3c-0.1,0.1-0.2,0.2-0.3,0.2l-0.2-0.3c0.2-0.1,0.4-0.2,0.5-0.4
			c0.1-0.1,0.1-0.2,0.1-0.3c0-0.1-0.1-0.2-0.2-0.2c-0.1-0.1-0.2-0.1-0.3,0c-0.1,0-0.2,0.1-0.2,0.2c0,0.1-0.1,0.2-0.1,0.2
			c0,0.1,0,0.2,0,0.2l-0.1,0.2l-1.1-0.6l0.7-1.2l0.3,0.2l-0.5,0.8l0.5,0.3c0-0.1,0-0.3,0.1-0.4C50,38.3,50,38.2,50.1,38.2z"/>
		<path class="st0" d="M51.5,37.9c-0.2,0-0.5-0.1-0.8-0.2c-0.3-0.2-0.5-0.4-0.6-0.6c-0.1-0.2-0.1-0.4,0-0.7c0.1-0.2,0.3-0.3,0.5-0.4
			c0.2,0,0.5,0.1,0.8,0.2c0.3,0.2,0.5,0.4,0.6,0.6c0.1,0.2,0.1,0.4,0,0.7C51.9,37.8,51.7,37.9,51.5,37.9z M51.7,37
			c-0.1-0.1-0.2-0.3-0.5-0.4c-0.2-0.1-0.4-0.2-0.6-0.2c-0.1,0-0.2,0-0.3,0.2c-0.1,0.1-0.1,0.2,0,0.4c0.1,0.1,0.2,0.2,0.5,0.4
			c0.2,0.1,0.4,0.2,0.6,0.2c0.1,0,0.3,0,0.3-0.2C51.8,37.3,51.8,37.2,51.7,37z"/>
	</g>
	<g>
		<path class="st0" d="M71.3,16.8c0.1,0,0.2,0,0.3,0.1c0.1,0.1,0.2,0.2,0.3,0.3c0.1,0.1,0.1,0.2,0.1,0.4c0,0.1,0,0.2-0.1,0.4
			c-0.1,0.1-0.2,0.2-0.3,0.3c-0.1,0.1-0.2,0.1-0.4,0.1c-0.1,0-0.3,0-0.4,0l0-0.3c0.2,0,0.5,0,0.6-0.1c0.1-0.1,0.2-0.2,0.2-0.2
			c0-0.1,0-0.2-0.1-0.3c-0.1-0.1-0.1-0.2-0.2-0.2c-0.1,0-0.2,0-0.3,0.1c-0.1,0-0.1,0.1-0.2,0.2c0,0.1-0.1,0.1-0.1,0.2l-0.2,0.1
			l-0.6-1.1l1.2-0.7l0.2,0.3l-0.8,0.5l0.3,0.5c0.1-0.1,0.2-0.2,0.3-0.3C71.1,16.8,71.2,16.8,71.3,16.8z"/>
		<path class="st0" d="M73,15.8c0.1,0,0.2,0,0.3,0.1c0.1,0.1,0.2,0.2,0.3,0.3c0.1,0.1,0.1,0.2,0.1,0.4c0,0.1,0,0.2-0.1,0.4
			c-0.1,0.1-0.2,0.2-0.3,0.3c-0.1,0.1-0.2,0.1-0.4,0.1c-0.1,0-0.3,0-0.4,0l0-0.3c0.2,0,0.5,0,0.6-0.1c0.1-0.1,0.2-0.2,0.2-0.2
			c0-0.1,0-0.2-0.1-0.3c-0.1-0.1-0.1-0.2-0.2-0.2c-0.1,0-0.2,0-0.3,0.1c-0.1,0-0.1,0.1-0.2,0.2c0,0.1-0.1,0.1-0.1,0.2l-0.2,0.1
			l-0.6-1.1l1.2-0.7l0.2,0.3L72,15.7l0.3,0.5c0.1-0.1,0.2-0.2,0.3-0.3C72.7,15.8,72.9,15.8,73,15.8z"/>
	</g>
	<g>
		<path class="st0" d="M126.9,16.8c0-0.2,0.1-0.5,0.2-0.8c0.2-0.3,0.4-0.5,0.6-0.6c0.2-0.1,0.4-0.1,0.7,0.1c0.2,0.1,0.3,0.3,0.4,0.5
			c0,0.2-0.1,0.5-0.2,0.8c-0.2,0.3-0.4,0.5-0.6,0.6c-0.2,0.1-0.4,0.1-0.7,0C127,17.2,126.9,17,126.9,16.8z M127.8,17
			c0.1-0.1,0.3-0.2,0.4-0.5c0.1-0.2,0.2-0.4,0.2-0.6c0-0.1,0-0.2-0.2-0.3c-0.1-0.1-0.2-0.1-0.4,0c-0.1,0.1-0.2,0.2-0.4,0.5
			c-0.1,0.2-0.2,0.4-0.2,0.6c0,0.1,0,0.3,0.2,0.3C127.5,17.1,127.7,17.1,127.8,17z"/>
		<path class="st0" d="M130,17.4c0.1,0.1,0.1,0.2,0.1,0.3c0,0.1,0,0.2-0.1,0.4c-0.1,0.1-0.2,0.2-0.3,0.3c-0.1,0.1-0.2,0.1-0.4,0.1
			c-0.1,0-0.3-0.1-0.4-0.1c-0.1-0.1-0.2-0.2-0.3-0.3c-0.1-0.1-0.2-0.2-0.2-0.3l0.3-0.2c0.1,0.2,0.2,0.4,0.4,0.5
			c0.1,0.1,0.2,0.1,0.3,0.1c0.1,0,0.2-0.1,0.2-0.2c0.1-0.1,0.1-0.2,0-0.3c0-0.1-0.1-0.2-0.2-0.2c-0.1,0-0.2-0.1-0.2-0.1
			s-0.2,0-0.2,0l-0.2-0.1l0.6-1.1l1.2,0.7l-0.2,0.3l-0.8-0.5l-0.3,0.5c0.1,0,0.3,0,0.4,0.1C129.9,17.2,130,17.3,130,17.4z"/>
	</g>
</g>
</svg>
