<?xml version="1.0" encoding="utf-8"?>
<!-- Generator: Adobe Illustrator 22.0.0, SVG Export Plug-In . SVG Version: 6.00 Build 0)  -->
<svg version="1.1" id="Layer_1" xmlns="http://www.w3.org/2000/svg" xmlns:xlink="http://www.w3.org/1999/xlink" x="0px" y="0px"
	 viewBox="0 0 200 50" style="enable-background:new 0 0 200 50;" xml:space="preserve">
<style type="text/css">
	.st0{fill:#9F9994;}
</style>
<g>
	<g>
		<path class="st0" d="M150.6,39.6c-10.1-17.5-29-29.4-50.6-29.4c-21.6,0-40.5,11.8-50.6,29.4c0.2,0.1,0.3,0.2,0.4,0.2
			c10-17.4,28.7-29.1,50.2-29.1c21.5,0,40.2,11.8,50.2,29.2C150.3,39.8,150.5,39.7,150.6,39.6z"/>
	</g>
	<g>
		<rect x="93.5" y="7.3" transform="matrix(0.9945 -0.1044 0.1044 0.9945 -0.4304 9.8403)" class="st0" width="0.5" height="3.4"/>
	</g>
	<g>
		<rect x="87.3" y="8.3" transform="matrix(0.9781 -0.2079 0.2079 0.9781 -0.1673 18.4286)" class="st0" width="0.5" height="3.4"/>
	</g>
	<g>
		<rect x="81.3" y="9.9" transform="matrix(0.9511 -0.309 0.309 0.9511 0.3971 25.7671)" class="st0" width="0.5" height="3.4"/>
	</g>
	<g>
		<rect x="75.4" y="12.2" transform="matrix(0.9136 -0.4066 0.4066 0.9136 0.8989 31.9768)" class="st0" width="0.5" height="3.4"/>
	</g>
	<g>
		<rect x="64.6" y="18.4" transform="matrix(0.8091 -0.5877 0.5877 0.8091 0.5595 41.9697)" class="st0" width="0.5" height="3.4"/>
	</g>
	<g>
		<rect x="59.8" y="22.4" transform="matrix(0.7432 -0.6691 0.6691 0.7432 -0.6892 46.33)" class="st0" width="0.5" height="3.4"/>
	</g>
	<g>
		<rect x="55.3" y="26.8" transform="matrix(0.6693 -0.743 0.743 0.6693 -2.7875 50.714)" class="st0" width="0.5" height="3.4"/>
	</g>
	<g>
		
			<rect x="51.4" y="31.6" transform="matrix(0.5879 -0.8089 0.8089 0.5879 -5.6985 55.5201)" class="st0" width="0.5" height="3.4"/>
	</g>
	<g>
		
			<rect x="148.1" y="31.6" transform="matrix(0.5879 0.8089 -0.8089 0.5879 88.136 -106.299)" class="st0" width="0.5" height="3.4"/>
	</g>
	<g>
		
			<rect x="144.2" y="26.8" transform="matrix(0.6692 0.7431 -0.7431 0.6692 68.9541 -97.9188)" class="st0" width="0.5" height="3.4"/>
	</g>
	<g>
		
			<rect x="139.8" y="22.4" transform="matrix(0.7432 0.6691 -0.6691 0.7432 52.0637 -87.5147)" class="st0" width="0.5" height="3.4"/>
	</g>
	<g>
		
			<rect x="134.9" y="18.4" transform="matrix(0.8091 0.5877 -0.5877 0.8091 37.6376 -75.6005)" class="st0" width="0.5" height="3.4"/>
	</g>
	<g>
		
			<rect x="124.1" y="12.2" transform="matrix(0.9136 0.4067 -0.4067 0.9136 16.3889 -49.3685)" class="st0" width="0.5" height="3.4"/>
	</g>
	<g>
		<rect x="118.2" y="9.9" transform="matrix(0.9511 0.309 -0.309 0.9511 9.3939 -36.0492)" class="st0" width="0.5" height="3.4"/>
	</g>
	<g>
		
			<rect x="112.2" y="8.3" transform="matrix(0.9781 0.2079 -0.2079 0.9781 4.5384 -23.1608)" class="st0" width="0.5" height="3.4"/>
	</g>
	<g>
		<rect x="106" y="7.3" transform="matrix(0.9945 0.1044 -0.1044 0.9945 1.5244 -11.0494)" class="st0" width="0.5" height="3.4"/>
	</g>
	<g>
		<g>
			<g>
				<rect x="99.8" y="7" class="st0" width="0.5" height="6.8"/>
			</g>
		</g>
	</g>
	<g>
		<g>
			<g>
				<rect x="70.7" y="14.8" transform="matrix(0.866 -0.5 0.5 0.866 0.4153 37.9249)" class="st0" width="0.5" height="6.8"/>
			</g>
		</g>
	</g>
	<g>
		<g>
			<g>
				<rect x="49.4" y="36" transform="matrix(0.5 -0.866 0.866 0.5 -9.3099 62.7614)" class="st0" width="0.5" height="6.8"/>
			</g>
		</g>
	</g>
	<g>
		<g>
			<g>
				<path class="st0" d="M150.7,39.5l2.7-1.5l-0.3-0.4l-5.9,3.4l0.3,0.4l2.9-1.7C150.5,39.7,150.6,39.6,150.7,39.5z"/>
			</g>
		</g>
	</g>
	<g>
		<g>
			<g>
				<rect x="128.8" y="14.8" transform="matrix(0.866 0.5 -0.5 0.866 26.3978 -62.0962)" class="st0" width="0.5" height="6.8"/>
			</g>
		</g>
	</g>
</g>
</svg>
