<?xml version="1.0" encoding="utf-8"?>
<!-- Generator: Adobe Illustrator 22.0.0, SVG Export Plug-In . SVG Version: 6.00 Build 0)  -->
<svg version="1.1" id="Layer_1" xmlns="http://www.w3.org/2000/svg" xmlns:xlink="http://www.w3.org/1999/xlink" x="0px" y="0px"
	 viewBox="0 0 200 50" style="enable-background:new 0 0 200 50;" xml:space="preserve">
<style type="text/css">
	.st0{fill:#9F9994;}
</style>
<g>
	<g>
		
			<rect x="119.8" y="18.1" transform="matrix(0.5092 -0.8606 0.8606 0.5092 44.8537 115.3555)" class="st0" width="7.5" height="0.5"/>
	</g>
	<g>
		<g>
			
				<rect x="136.7" y="34.9" transform="matrix(0.8713 -0.4907 0.4907 0.8713 0.7988 73.4674)" class="st0" width="7.5" height="0.5"/>
		</g>
		<g>
			
				<rect x="137.2" y="35.9" transform="matrix(0.8713 -0.4908 0.4908 0.8713 0.4173 73.8543)" class="st0" width="7.5" height="0.5"/>
		</g>
	</g>
	<g>
		<g>
			<polygon class="st0" points="62.6,36.9 55.6,34.1 55.8,33.6 62.8,36.4 			"/>
		</g>
		<g>
			<polygon class="st0" points="62.3,37.4 62,37.8 56.1,33 56.5,32.6 			"/>
		</g>
	</g>
	<g>
		<g>
			
				<rect x="75.5" y="14.8" transform="matrix(0.8713 -0.4908 0.4908 0.8713 0.6639 39.5757)" class="st0" width="0.5" height="7.5"/>
		</g>
		<g>
			<polygon class="st0" points="75.1,14.6 79.7,20.5 79.3,20.9 74.7,14.9 			"/>
		</g>
		<g>
			<polygon class="st0" points="75.6,14.3 76.1,14.1 78.8,21.2 78.3,21.4 			"/>
		</g>
	</g>
	<g>
		<g>
			<rect x="100.3" y="8.2" class="st0" width="0.5" height="7.5"/>
		</g>
		<g>
			<rect x="101.3" y="8.2" class="st0" width="0.5" height="7.5"/>
		</g>
		<g>
			<polygon class="st0" points="99.2,15.8 98.1,8.3 98.6,8.2 99.7,15.7 			"/>
		</g>
		<g>
			<polygon class="st0" points="98.6,15.8 98.1,15.7 99.2,8.2 99.7,8.3 			"/>
		</g>
	</g>
</g>
</svg>
