<?xml version="1.0" encoding="utf-8"?>
<!-- Generator: Adobe Illustrator 22.0.0, SVG Export Plug-In . SVG Version: 6.00 Build 0)  -->
<svg version="1.1" id="Layer_1" xmlns="http://www.w3.org/2000/svg" xmlns:xlink="http://www.w3.org/1999/xlink" x="0px" y="0px"
	 viewBox="0 0 200 50" style="enable-background:new 0 0 200 50;" xml:space="preserve">
<style type="text/css">
	.st0{fill:#9F9994;}
</style>
<g>
	<g>
		<g>
			<rect x="99.6" y="7" class="st0" width="0.7" height="3.6"/>
		</g>
		<g>
			<rect x="70.7" y="14.7" transform="matrix(0.866 -0.5 0.5 0.866 1.2593 37.7606)" class="st0" width="0.7" height="3.6"/>
		</g>
		<g>
			<rect x="49.6" y="35.9" transform="matrix(0.5 -0.866 0.866 0.5 -7.6778 62.0867)" class="st0" width="0.7" height="3.6"/>
		</g>
		<g>
			<rect x="149.7" y="35.9" transform="matrix(0.5 0.866 -0.866 0.5 107.6778 -111.1184)" class="st0" width="0.7" height="3.6"/>
		</g>
		<g>
			<rect x="128.6" y="14.7" transform="matrix(0.866 0.5 -0.5 0.866 25.5356 -62.2394)" class="st0" width="0.7" height="3.6"/>
		</g>
	</g>
	<g>
		<g>
			<rect x="93.8" y="7.3" transform="matrix(0.9945 -0.1045 0.1045 0.9945 -0.4366 9.871)" class="st0" width="0.4" height="3.6"/>
		</g>
		<g>
			
				<rect x="87.8" y="8.3" transform="matrix(0.9781 -0.2079 0.2079 0.9781 -0.1665 18.5115)" class="st0" width="0.4" height="3.6"/>
		</g>
		<g>
			<rect x="82" y="9.8" transform="matrix(0.9511 -0.309 0.309 0.9511 0.4309 25.9492)" class="st0" width="0.4" height="3.6"/>
		</g>
		<g>
			<rect x="76.3" y="12" transform="matrix(0.9135 -0.4067 0.4067 0.9135 1.0064 32.3005)" class="st0" width="0.4" height="3.6"/>
		</g>
		<g>
			<rect x="65.8" y="18" transform="matrix(0.809 -0.5878 0.5878 0.809 0.9544 42.59)" class="st0" width="0.4" height="3.6"/>
		</g>
		<g>
			
				<rect x="61.1" y="21.9" transform="matrix(0.7431 -0.6691 0.6691 0.7431 -6.609639e-02 47.0974)" class="st0" width="0.4" height="3.6"/>
		</g>
		<g>
			
				<rect x="56.9" y="26.1" transform="matrix(0.6691 -0.7431 0.7431 0.6691 -1.8733 51.6206)" class="st0" width="0.4" height="3.6"/>
		</g>
		<g>
			<rect x="53" y="30.8" transform="matrix(0.5878 -0.809 0.809 0.5878 -4.4473 56.5058)" class="st0" width="0.4" height="3.6"/>
		</g>
		<g>
			
				<rect x="146.6" y="30.8" transform="matrix(0.5878 0.809 -0.809 0.5878 86.8903 -105.2976)" class="st0" width="0.4" height="3.6"/>
		</g>
		<g>
			
				<rect x="142.8" y="26.1" transform="matrix(0.6691 0.7431 -0.7431 0.6691 68.0472 -97.0083)" class="st0" width="0.4" height="3.6"/>
		</g>
		<g>
			
				<rect x="138.5" y="21.9" transform="matrix(0.7431 0.6691 -0.6691 0.7431 51.4371 -86.7287)" class="st0" width="0.4" height="3.6"/>
		</g>
		<g>
			<rect x="133.8" y="18" transform="matrix(0.809 0.5878 -0.5878 0.809 37.2422 -74.967)" class="st0" width="0.4" height="3.6"/>
		</g>
		<g>
			
				<rect x="123.3" y="12" transform="matrix(0.9135 0.4067 -0.4067 0.9135 16.2845 -49.0469)" class="st0" width="0.4" height="3.6"/>
		</g>
		<g>
			<rect x="117.7" y="9.8" transform="matrix(0.9511 0.309 -0.309 0.9511 9.3578 -35.8542)" class="st0" width="0.4" height="3.6"/>
		</g>
		<g>
			
				<rect x="111.8" y="8.3" transform="matrix(0.9781 0.2079 -0.2079 0.9781 4.537 -23.0708)" class="st0" width="0.4" height="3.6"/>
		</g>
		<g>
			
				<rect x="105.9" y="7.3" transform="matrix(0.9945 0.1045 -0.1045 0.9945 1.5322 -11.0347)" class="st0" width="0.4" height="3.6"/>
		</g>
	</g>
</g>
</svg>
